<?xml version="1.0" standalone="no"?>
<!DOCTYPE svg PUBLIC "-//W3C//DTD SVG 20010904//EN"
 "http://www.w3.org/TR/2001/REC-SVG-20010904/DTD/svg10.dtd">
<svg version="1.0" xmlns="http://www.w3.org/2000/svg"
 width="1024.000000pt" height="1024.000000pt" viewBox="0 0 1024.000000 1024.000000"
 preserveAspectRatio="xMidYMid meet">
<metadata>
Created by potrace 1.11, written by Peter Selinger 2001-2013
</metadata>
<g transform="translate(0.000000,1024.000000) scale(0.100000,-0.100000)"
fill="#000000" stroke="none">
<path d="M4810 8629 c-367 -32 -795 -139 -1136 -285 -685 -292 -1262 -765
-1677 -1374 -106 -156 -131 -198 -229 -385 -127 -242 -183 -384 -273 -694 -91
-317 -145 -823 -125 -1175 6 -105 15 -218 20 -251 34 -229 75 -431 104 -518
19 -56 46 -151 60 -212 27 -114 147 -461 192 -552 14 -29 71 -117 127 -196 56
-79 126 -177 154 -218 29 -41 94 -119 145 -174 118 -127 144 -159 166 -193 34
-55 98 -125 167 -180 39 -31 126 -111 195 -178 157 -151 193 -176 310 -214
211 -69 463 -90 770 -65 176 15 404 18 1625 21 781 1 1476 5 1545 9 167 7 339
43 421 86 43 23 99 69 171 139 59 58 129 124 155 145 148 126 159 137 233 235
71 95 111 142 181 214 42 43 100 115 129 160 28 44 92 144 142 221 104 162
126 202 162 305 15 41 52 131 82 199 30 68 66 167 79 221 14 53 43 151 65 217
22 66 49 172 60 234 11 63 29 165 40 227 64 361 32 961 -75 1407 -188 785
-684 1530 -1370 2056 -306 235 -668 432 -1028 560 -427 152 -828 220 -1277
217 -118 0 -258 -4 -310 -9z m700 -395 c158 -17 342 -50 490 -90 126 -34 343
-105 337 -110 -2 -2 -23 3 -47 11 -46 16 -130 21 -115 6 6 -5 37 -17 70 -27
l60 -19 -65 -3 c-39 -2 -81 3 -105 12 -38 14 -39 15 -10 15 23 1 27 3 17 14
-10 9 -225 12 -1007 12 -782 0 -997 -3 -1006 -12 -11 -11 -7 -13 16 -14 29 0
28 -1 -10 -15 -24 -9 -66 -14 -105 -12 l-65 3 60 19 c33 10 64 22 70 27 13 13
-68 11 -101 -1 -15 -6 -29 -8 -31 -6 -3 3 52 23 121 45 471 150 925 197 1426
145z m-1600 -214 c-8 -5 -19 -10 -25 -10 -5 0 -3 5 5 10 8 5 20 10 25 10 6 0
3 -5 -5 -10z m2470 0 c8 -5 11 -10 5 -10 -5 0 -17 5 -25 10 -8 5 -10 10 -5 10
6 0 17 -5 25 -10z"/>
</g>
</svg>
